<?xml version="1.0" encoding="UTF-8"?>
<svg version="1.1" xmlns="http://www.w3.org/2000/svg" width="24" height="24">
<path d="M0 0 C0.66 0 1.32 0 2 0 C2 1.32 2 2.64 2 4 C5.04386724 4.08226668 7.07175348 3.97608217 10 3 C9.505 3.7425 9.505 3.7425 9 4.5 C7.75641478 7.12244794 7.75641478 7.12244794 8.125 10.6875 C8.29588042 15.7284723 6.27933151 19.60414637 4 24 C2.02 24 0.04 24 -2 24 C-2.20496094 23.43410156 -2.40992188 22.86820313 -2.62109375 22.28515625 C-2.89050781 21.55167969 -3.15992188 20.81820313 -3.4375 20.0625 C-3.70433594 19.33160156 -3.97117187 18.60070312 -4.24609375 17.84765625 C-4.85386948 16.01694322 -4.85386948 16.01694322 -6 15 C-6.46993007 7.71608392 -6.46993007 7.71608392 -4.6875 5 C-3 4 -3 4 0 4 C0 2.68 0 1.36 0 0 Z M-3.3125 6.6875 C-5.27529848 8.86884666 -5.27529848 8.86884666 -4.875 11.5625 C-4.03639506 14.20644784 -4.03639506 14.20644784 -2 17 C0.95720628 17.66680368 0.95720628 17.66680368 4 17 C6.17020292 14.91078244 6.17020292 14.91078244 7 12 C6.18795587 8.82564566 5.31819425 7.31819425 3 5 C-0.93859697 4.60702062 -0.93859697 4.60702062 -3.3125 6.6875 Z " fill="#000000" transform="translate(11,0)"/>
<path d="M0 0 C0.66 0 1.32 0 2 0 C2 1.32 2 2.64 2 4 C1.34 4 0.68 4 0 4 C-0.33 4.99 -0.66 5.98 -1 7 C-2.32 6.67 -3.64 6.34 -5 6 C-5.33 4.68 -5.66 3.36 -6 2 C-4.7934375 1.7834375 -4.7934375 1.7834375 -3.5625 1.5625 C-1.07896294 1.25864751 -1.07896294 1.25864751 0 0 Z " fill="#000000" transform="translate(14,8)"/>
<path d="M0 0 C0.99 0.33 1.98 0.66 3 1 C3 1.66 3 2.32 3 3 C2.01 2.67 1.02 2.34 0 2 C0 1.34 0 0.68 0 0 Z " fill="#000000" transform="translate(3,3)"/>
<path d="M0 0 C0.99 0.99 1.98 1.98 3 3 C2.01 3 1.02 3 0 3 C0 2.01 0 1.02 0 0 Z " fill="#000000" transform="translate(18,17)"/>
<path d="M0 0 C0.33 0.99 0.66 1.98 1 3 C0.01 2.67 -0.98 2.34 -2 2 C-1.34 1.34 -0.68 0.68 0 0 Z " fill="#000000" transform="translate(5,17)"/>
<path d="M0 0 C4 1 4 1 4 1 Z " fill="#000000" transform="translate(20,11)"/>
<path d="M0 0 C4 1 4 1 4 1 Z " fill="#000000" transform="translate(0,11)"/>
</svg>
